# xmcd
#
# Track frame offsets: 
#        150
#        15576
#        35304
#        48232
#        64420
#        84142
#        94411
#        105907
#        128520
#        145575
#        162522
#        183961
#        198916
#        224941
#        246302
#
# Disc length: 3582 seconds
#
# Revision: 2
# Processed by: cddbd v1.5.2PL0 Copyright (c) Steve Scherf et al.
# Submitted via: ExactAudioCopy v1.0b3
#
DISCID=c90dfc0f
DTITLE=Kasey Chambers - Storybook
DYEAR=2011
DGENRE=Country
TTITLE0=Happy Woman Blues
TTITLE1=Return Of The Grievous Angel
TTITLE2=If I Needed You
TTITLE3=Luka
TTITLE4=Nothing But A Child
TTITLE5=Leave The Lights On
TTITLE6=I'm So Lonesome I Could Cry
TTITLE7=Guilty
TTITLE8=Orphan Girl
TTITLE9=True Colours
TTITLE10=Water In The Fuel
TTITLE11=I Wish It Would Rain
TTITLE12=Everything's Turning To White
TTITLE13=Too Long In The Wasteland
TTITLE14=Top Of The World
EXTD=
EXTT0=written by Lucinda Williams
EXTT1=written by Gram Parsons
EXTT2=written by Townes Van Zandt
EXTT3=written by Suzanne Vega
EXTT4=written by Steve Earle - recorded with The Lost Boys
EXTT5=written by John Prine
EXTT6=written by Hank Williams - recorded with Paul Kelly
EXTT7=written by Matthew Ryan
EXTT8=written by Gillian Welch - recorded with Shane Nicholson
EXTT9=written by Cyndi Lauper
EXTT10=written by Fred Eaglesmith
EXTT11=written by Nanci Griffith - recorded with Ashleigh Dallas
EXTT12=written by Paul Kelly
EXTT13=written by James McMurty
EXTT14=written by Patty Griffin - recorded Live
PLAYORDER=
